# xmcd
#
# Track frame offsets:
# 150
# 16824
# 37715
# 54454
# 70599
# 88770
# 104886
# 122244
# 142304
# 159676
# 173284
# 188893
# 205246
# 216801
#
# Disc length: 3119 seconds
#
# Revision: 1
# Processed by: cddbd v1.5.1PL0 Copyright (c) Steve Scherf et al.
# Submitted via: Easy CD Ripper v2.10
#
DISCID=c40c2d0e
DTITLE=Various Artist - Urban Beats by MoonCook Productions
DYEAR=2004
DGENRE=Blues
TTITLE0=Criticize Me - Sherr
TTITLE1=Blind Fury - Propheci
TTITLE2=Giggin - Eturnul
TTITLE3=Writing About You - Jack Quest
TTITLE4=Love Me For Me - Sherr
TTITLE5=Get It Bumpin - Valerie
TTITLE6=Unconditionally - MissBree
TTITLE7=Take A Look - Big Lumber
TTITLE8=Worth It All - Merline
TTITLE9=Hold Me Up - Jack Quest
TTITLE10=Eturnul - Eturnul
TTITLE11=My Everything - Miss Bree
TTITLE12=I Can Love You - Merline
TTITLE13=Judge Me Now - Big Lumber
EXTD=
EXTT0=
EXTT1=
EXTT2=
EXTT3=
EXTT4=
EXTT5=
EXTT6=
EXTT7=
EXTT8=
EXTT9=
EXTT10=
EXTT11=
EXTT12=
EXTT13=
PLAYORDER=
